<?xml version="1.0" standalone="no"?>
<!DOCTYPE svg PUBLIC "-//W3C//DTD SVG 20010904//EN"
 "http://www.w3.org/TR/2001/REC-SVG-20010904/DTD/svg10.dtd">
<svg version="1.0" xmlns="http://www.w3.org/2000/svg"
 xmlns:xlink="http://www.w3.org/1999/xlink"
 width="128px" height="128px" viewBox="0 0 128 128"
 preserveAspectRatio="xMidYMid meet">
<metadata>
Created by potrace 1.13, written by Peter Selinger 2001-2015
</metadata>
<defs>
<path id="shape" transform="translate(2,126) scale(0.0043,-0.0043)" 
d="M14590 28983 c-1414 -38 -2969 -230 -4370 -539 -2825 -623 -4998
-1642 -6575 -3084 -175 -160 -543 -533 -696 -705 -866 -973 -1551 -2073 -2114
-3395 -719 -1689 -946 -2846 -784 -4000 151 -1075 688 -2136 1486 -2935 952
-952 2301 -1586 4173 -1959 438 -87 591 -141 718 -252 149 -131 209 -280 278
-694 19 -118 44 -258 56 -310 86 -401 313 -772 757 -1235 166 -174 626 -619
731 -707 338 -286 777 -518 1255 -663 334 -102 607 -159 1337 -279 284 -47
583 -100 665 -117 855 -176 1379 -431 1750 -852 170 -191 224 -270 790 -1134
791 -1209 1287 -1983 2506 -3908 948 -1497 1389 -2189 1402 -2203 10 -11 323
70 1791 463 979 263 1781 479 1783 481 3 2 -116 286 -264 632 -262 613 -579
1315 -875 1937 -169 356 -169 355 -143 355 11 0 309 54 664 120 1321 247 1385
261 1716 361 725 220 1343 539 1853 958 331 272 861 860 1240 1376 249 339
452 669 616 1000 205 415 259 675 279 1335 23 758 91 1009 357 1310 75 85 127
134 393 372 277 248 424 418 629 726 211 317 424 719 553 1047 461 1165 575
2551 342 4145 -141 963 -427 2055 -824 3150 -300 829 -725 1697 -1213 2485
-762 1228 -1747 2401 -2872 3418 -1214 1099 -2541 1910 -4035 2467 -1614 601
-3439 886 -5355 833z m1140 -564 c2205 -98 4203 -671 5928 -1701 877 -524
1629 -1113 2446 -1918 1604 -1581 2774 -3362 3459 -5265 284 -790 514 -1599
662 -2330 102 -504 158 -902 206 -1445 17 -197 23 -907 10 -1120 -77 -1223
-392 -2174 -1006 -3035 -137 -192 -219 -280 -477 -513 -496 -446 -648 -645
-763 -998 -80 -243 -109 -463 -130 -987 -21 -524 -40 -679 -111 -899 -40 -125
-187 -423 -304 -618 -405 -675 -1114 -1520 -1590 -1896 -404 -318 -864 -558
-1435 -749 -411 -137 -376 -130 -1845 -405 -531 -99 -989 -187 -1019 -196 -41
-12 -66 -28 -107 -68 -64 -65 -90 -137 -80 -223 11 -92 104 -323 273 -678 330
-691 935 -2038 921 -2049 -2 -2 -577 -157 -1278 -345 -1010 -270 -1277 -338
-1286 -328 -6 6 -144 221 -306 477 -1229 1940 -1544 2436 -1830 2885 -559 878
-929 1452 -1458 2260 -190 292 -384 589 -430 660 -430 670 -738 988 -1212
1254 -299 167 -627 292 -1030 391 -243 60 -469 103 -1027 196 -720 119 -976
174 -1289 275 -382 124 -709 293 -972 506 -115 93 -667 630 -815 792 -319 353
-466 596 -530 874 -9 38 -34 175 -56 305 -22 131 -53 289 -70 352 -105 394
-313 657 -654 828 -167 83 -335 130 -750 211 -749 146 -1512 379 -2115 646
-1244 550 -2113 1350 -2639 2430 -517 1059 -600 2117 -264 3395 238 909 780
2192 1311 3105 579 996 1311 1898 2107 2594 783 686 1754 1287 2854 1767 1657
725 3823 1258 5971 1469 1042 102 1893 132 2730 94z"/>
<g id="text" transform="translate(2,126) scale(0.0043, -0.0043)">
<path d="M18110 23933 c-607 -42 -1087 -143 -1560 -330 -810 -320 -1409 -840
-1757 -1523 -164 -322 -268 -684 -309 -1070 -23 -221 -15 -667 16 -865 53
-349 127 -588 270 -880 136 -278 279 -481 495 -704 158 -163 302 -282 495
-410 417 -277 936 -473 1510 -570 395 -68 658 -85 1164 -78 491 7 776 33 1171
108 255 48 582 140 600 170 5 7 -235 1144 -249 1185 -3 6 -47 -4 -117 -27
-504 -165 -1309 -225 -1843 -138 -721 117 -1237 459 -1506 996 -288 578 -263
1410 59 1955 309 524 868 843 1626 928 508 57 1173 -19 1652 -188 l113 -40 9
32 c5 17 88 285 186 594 97 310 173 567 169 572 -5 4 -47 22 -94 40 -316 121
-781 206 -1305 240 -143 9 -680 11 -795 3z"/>
<path d="M9985 23873 c-593 -13 -1294 -63 -1672 -120 l-113 -16 0 -3054 c0
-2436 3 -3053 13 -3053 6 0 68 -7 137 -15 146 -17 442 -41 690 -56 279 -17
1299 -23 1575 -10 574 28 999 82 1382 176 376 93 660 209 901 369 532 353 802
840 779 1405 -11 284 -89 518 -248 752 -197 287 -541 531 -943 667 -65 23
-120 42 -121 44 -2 2 45 25 104 51 470 208 810 564 911 955 90 348 25 721
-180 1028 -78 117 -262 295 -395 383 -256 168 -613 311 -961 385 -427 90
-1061 127 -1859 109z m989 -1132 c424 -76 647 -249 696 -539 45 -268 -105
-515 -393 -647 -84 -38 -212 -80 -312 -101 -186 -40 -269 -46 -657 -51 l-388
-5 0 670 0 670 113 11 c185 19 190 19 512 16 266 -2 327 -5 429 -24z m-134
-2465 c543 -75 865 -256 974 -547 92 -245 32 -531 -149 -715 -176 -179 -442
-286 -835 -336 -119 -15 -731 -18 -842 -5 l-68 9 0 810 0 810 403 -5 c287 -4
435 -10 517 -21z"/>
<path d="M21570 20720 l0 -3120 870 0 870 0 0 3120 0 3120 -870 0 -870 0 0
-3120z"/>
<path d="M9630 16469 c-449 -42 -908 -206 -1233 -442 -60 -44 -68 -53 -62 -74
8 -35 325 -826 334 -835 4 -4 38 15 76 43 239 174 501 294 729 334 111 19 301
19 398 1 242 -47 399 -175 463 -379 99 -311 -20 -657 -370 -1077 -232 -278
-501 -539 -1227 -1193 l-457 -412 -1 -362 0 -363 1680 0 1680 0 0 490 0 490
-825 2 -825 3 187 157 c790 662 1211 1225 1332 1783 48 220 49 486 1 712 -135
643 -646 1054 -1395 1123 -128 12 -349 11 -485 -1z"/>
<path d="M13710 16469 c-570 -65 -1011 -383 -1284 -927 -213 -424 -321 -996
-302 -1602 39 -1295 548 -2107 1431 -2287 74 -15 137 -18 350 -18 230 1 272 3
362 23 774 168 1251 797 1383 1827 59 460 41 1025 -45 1435 -215 1015 -817
1568 -1697 1559 -68 -1 -157 -5 -198 -10z m363 -947 c278 -137 427 -649 427
-1467 0 -566 -79 -1025 -218 -1262 -128 -220 -319 -300 -527 -222 -73 27 -170
118 -229 213 -171 274 -247 767 -225 1456 18 582 120 977 303 1176 99 109 181
146 317 141 74 -3 96 -8 152 -35z"/>
<path d="M17630 16469 c-497 -52 -919 -322 -1191 -759 -71 -114 -169 -321
-214 -450 -299 -864 -229 -2084 159 -2780 95 -170 180 -285 306 -410 214 -214
455 -345 758 -411 123 -27 462 -38 609 -20 408 50 769 246 1014 549 325 401
498 954 528 1678 26 637 -61 1182 -259 1627 -226 506 -616 841 -1101 945 -184
40 -417 52 -609 31z m363 -947 c239 -118 378 -499 417 -1142 38 -633 -33
-1237 -181 -1534 -73 -147 -138 -218 -249 -270 -58 -27 -75 -30 -155 -30 -118
0 -184 25 -266 102 -100 92 -154 182 -213 350 -101 291 -149 768 -127 1264 28
604 124 962 314 1164 95 102 171 135 303 131 79 -2 100 -7 157 -35z"/>
<path d="M21580 16474 c-340 -33 -660 -167 -902 -381 -283 -250 -497 -636
-613 -1103 -65 -265 -93 -491 -102 -825 -24 -912 202 -1649 642 -2091 218
-219 455 -348 769 -416 89 -20 131 -22 356 -23 226 0 268 3 367 23 711 144
1177 691 1352 1585 57 290 66 404 66 827 0 314 -3 411 -18 525 -76 586 -244
1023 -519 1351 -226 268 -539 445 -903 510 -88 15 -400 27 -495 18z m322 -946
c220 -102 356 -418 412 -958 44 -419 25 -1002 -44 -1341 -52 -252 -136 -451
-237 -556 -168 -174 -410 -175 -581 -3 -140 141 -238 410 -287 783 -28 219
-39 546 -26 814 17 373 55 618 127 825 90 258 192 388 354 450 70 27 208 20
282 -14z"/>
</g>
</defs>
<g fill="black" stroke="none">
<use stroke="black" stroke-width="400" xlink:href="#shape" />
<use xlink:href="#text" />
</g>
</svg>
